<?xml version="1.0" encoding="UTF-8" standalone="no"?>
<!-- Created with Inkscape (http://www.inkscape.org/) -->

<svg
   version="1.1"
   id="svg20443"
   xml:space="preserve"
   width="530.66669"
   height="530.66669"
   viewBox="0 0 530.66669 530.66669"
   sodipodi:docname="fly-color-silhouette.svg"
   inkscape:version="1.1.2 (b8e25be833, 2022-02-05)"
   xmlns:inkscape="http://www.inkscape.org/namespaces/inkscape"
   xmlns:sodipodi="http://sodipodi.sourceforge.net/DTD/sodipodi-0.dtd"
   xmlns="http://www.w3.org/2000/svg"
   xmlns:svg="http://www.w3.org/2000/svg"><defs
     id="defs20447"><clipPath
       clipPathUnits="userSpaceOnUse"
       id="clipPath20457"><path
         d="M 0,398 H 398 V 0 H 0 Z"
         id="path20455" /></clipPath></defs><sodipodi:namedview
     id="namedview20445"
     pagecolor="#ffffff"
     bordercolor="#666666"
     borderopacity="1.0"
     inkscape:pageshadow="2"
     inkscape:pageopacity="0.0"
     inkscape:pagecheckerboard="0"
     showgrid="false"
     inkscape:zoom="1.5659547"
     inkscape:cx="265.33334"
     inkscape:cy="265.33334"
     inkscape:window-width="1920"
     inkscape:window-height="1018"
     inkscape:window-x="-8"
     inkscape:window-y="-8"
     inkscape:window-maximized="1"
     inkscape:current-layer="g20449" /><g
     id="g20449"
     inkscape:groupmode="layer"
     inkscape:label="fly-color-silhouette"
     transform="matrix(1.3333333,0,0,-1.3333333,0,530.66667)"><g
       id="g20451"><g
         id="g20453"
         clip-path="url(#clipPath20457)"><path
           d="m 389.396,253.653 c -1.881,1.161 -3.893,2.153 -6.019,2.987 l 2.073,-21.264 c 5.329,7.818 8.571,15.421 3.946,18.277"
           style="fill:#c60800;fill-opacity:1;fill-rule:nonzero;stroke:none"
           id="path20459" /><path
           d="m 314.8,130.064 c -0.43,0.087 -1.523,0.505 -3.028,1.152 l 1.768,-4.854 c 4.731,4.612 4.619,3.029 1.26,3.702"
           style="fill:#dae262;fill-opacity:1;fill-rule:nonzero;stroke:none"
           id="path20461" /><path
           d="m 293.587,289.955 c 6.857,3.721 5.127,6.849 1.659,6.235 -1.858,3.072 -2.116,3.159 -3.578,2.242 l 0.281,-9.365 c 0.557,0.303 1.105,0.599 1.638,0.888"
           style="fill:#df2200;fill-opacity:1;fill-rule:nonzero;stroke:none"
           id="path20463" /><path
           d="m 320.241,254.03 c -9.297,-2.465 -18.466,-5.424 -26.987,-8.434 l 0.597,-19.856 z"
           style="fill:#df2200;fill-opacity:1;fill-rule:nonzero;stroke:none"
           id="path20465" /><path
           d="m 380.88,229.197 c 1.599,2.019 3.158,4.107 4.57,6.179 l -2.073,21.264 c -16.632,6.525 -40.267,3.454 -63.136,-2.61 l -26.39,-28.29 z"
           style="fill:#dc2b00;fill-opacity:1;fill-rule:nonzero;stroke:none"
           id="path20467" /><path
           d="m 339.739,201.677 c 0.415,1.963 -0.408,3.616 -2.878,4.755 6.238,-2.027 25.947,3.457 30.99,8.263 2.364,2.255 7.897,8.021 13.029,14.502 l -87.029,-3.457 z"
           style="fill:#df5e00;fill-opacity:1;fill-rule:nonzero;stroke:none"
           id="path20469" /><path
           d="m 299.771,175.82 c 15.381,4.328 38.256,17.743 39.968,25.857 l -45.888,24.063 z"
           style="fill:#e88200;fill-opacity:1;fill-rule:nonzero;stroke:none"
           id="path20471" /><path
           d="m 312.362,122.855 c 1.027,-0.342 -0.306,2.031 0.593,2.93 0.204,0.203 0.397,0.394 0.585,0.577 l -1.768,4.854 c -5.415,2.325 -16.172,7.607 -20.688,11.045 l -3.192,-4.841 c 5.044,-7.482 13.49,-10.895 24.47,-14.565"
           style="fill:#dcf07c;fill-opacity:1;fill-rule:nonzero;stroke:none"
           id="path20473" /><path
           d="m 283.6,104.687 c -2.76,2.119 -4.49,3.939 -3.754,4.785 2.187,2.518 -0.471,5.987 -4.398,9.077 l -6.151,-9.329 z"
           style="fill:#dcf07c;fill-opacity:1;fill-rule:nonzero;stroke:none"
           id="path20475" /><path
           d="m 279.369,166.569 c -0.18,0.137 -0.36,0.274 -0.545,0.406 2.599,5.05 -3.665,6.566 -10.583,7.729 -0.065,0.011 -0.129,0.023 -0.194,0.033 l -1.765,-3.488 z"
           style="fill:#f38900;fill-opacity:1;fill-rule:nonzero;stroke:none"
           id="path20477" /><path
           d="m 270.728,180.035 c 7.027,-2.619 13.679,-4.675 18.986,-5.484 2.486,-0.379 6.013,0.131 10.057,1.269 l -5.92,49.92 z"
           style="fill:#f38900;fill-opacity:1;fill-rule:nonzero;stroke:none"
           id="path20479" /><path
           d="m 270.653,106.349 c 2.04,-1.774 4.11,-2.701 5.684,-2.208 8.445,-7.956 15.872,-15.706 22.507,-18.564 1.887,-0.813 0.074,1.532 1.863,2.873 6.95,5.209 3.309,3.894 0.812,5.091 -0.82,0.393 -11.857,6.49 -17.919,11.146 l -14.303,4.533 z"
           style="fill:#b7f3bb;fill-opacity:1;fill-rule:nonzero;stroke:none"
           id="path20481" /><path
           d="m 267.541,257.127 c 3.649,2.469 8.245,8.962 8.227,14.936 -0.007,2.198 -0.085,5.38 1.034,6.684 0.714,0.831 1.598,1.66 2.602,2.481 l 3.899,12.643 c -7.073,-4.231 -11.854,-9.127 -13.107,-14.024 -4.921,-0.669 -5.021,-15.285 -6.234,-19.11 -2.863,0.891 -6.249,-1.081 -9.793,-4.043 l 1.656,-13.595 c 4.514,3.386 8.799,8.192 11.716,14.028"
           style="fill:#ef3500;fill-opacity:1;fill-rule:nonzero;stroke:none"
           id="path20483" /><path
           d="m 265.098,234.829 c -2.961,-1.189 -5.608,-2.258 -7.881,-3.151 l 1.958,-16.061 z"
           style="fill:#ef3500;fill-opacity:1;fill-rule:nonzero;stroke:none"
           id="path20485" /><path
           d="m 256.271,307.84 c -1.28,1.279 -4.346,0.168 -8.083,-2.058 l 0.738,-6.063 c 4.831,4.225 8.001,7.465 7.345,8.121"
           style="fill:#ef3500;fill-opacity:1;fill-rule:nonzero;stroke:none"
           id="path20487" /><path
           d="m 291.949,289.067 -0.281,9.365 c -0.615,-0.385 -1.442,-0.948 -2.693,-1.541 -2.021,-0.958 -3.916,-1.969 -5.672,-3.02 l -3.899,-12.643 c 3.435,2.809 8.275,5.516 12.545,7.839"
           style="fill:#f43800;fill-opacity:1;fill-rule:nonzero;stroke:none"
           id="path20489" /><path
           d="m 293.851,225.74 -0.597,19.856 c -10.774,-3.806 -20.51,-7.694 -28.156,-10.767 l -5.923,-19.212 z"
           style="fill:#f43800;fill-opacity:1;fill-rule:nonzero;stroke:none"
           id="path20491" /><path
           d="m 268.047,174.737 c -0.823,0.14 -1.621,0.281 -2.392,0.422 l 0.627,-3.91 z"
           style="fill:#f77700;fill-opacity:1;fill-rule:nonzero;stroke:none"
           id="path20493" /><path
           d="m 259.175,215.617 5.31,-33.153 c 2.097,-0.847 4.186,-1.661 6.243,-2.429 l 23.123,45.705 z"
           style="fill:#f77700;fill-opacity:1;fill-rule:nonzero;stroke:none"
           id="path20495" /><path
           d="m 275.448,118.549 c -2.093,1.648 -4.547,3.188 -6.819,4.419 l 0.668,-13.748 z"
           style="fill:#f2da4a;fill-opacity:1;fill-rule:nonzero;stroke:none"
           id="path20497" /><path
           d="m 266.744,161.744 c 2.109,-0.657 4.33,-1.095 6.676,-1.201 -1.014,-7.401 5.505,-19.393 12.536,-19.689 0.575,-1.234 1.222,-2.375 1.936,-3.434 l 3.192,4.841 c -1.005,0.765 -1.703,1.44 -1.961,1.969 0.66,8.404 -2.769,17.026 -9.754,22.339 l -13.087,4.68 z"
           style="fill:#f2da4a;fill-opacity:1;fill-rule:nonzero;stroke:none"
           id="path20499" /><path
           d="m 259.175,215.617 -1.958,16.061 c -0.969,-0.381 -1.872,-0.732 -2.699,-1.045 -8.864,-3.358 -13.929,-4.371 -15.613,-2.538 -1.348,1.468 5.359,2.338 6.17,9.792 3.335,0.676 7.116,2.485 10.75,5.212 l -1.656,13.595 c -4.213,-3.519 -8.648,-8.436 -12.698,-11.613 -4.416,0.579 -9.711,-5.258 -11.551,-4.572 -0.249,1.026 -3.913,4.605 -2.579,5.846 7.7,7.166 7.018,25.591 -3.117,21.901 -2.825,1.265 -8.326,2.162 -8.664,6.057 2.529,0.878 22.304,15.73 33.366,25.406 l -0.738,6.063 c -8.549,-5.093 -20.617,-16.028 -22.889,-17.597 -2.666,-1.841 -6.744,-3.831 -10.351,-5.829 l -29.433,-42.832 z"
           style="fill:#fb6100;fill-opacity:1;fill-rule:nonzero;stroke:none"
           id="path20501" /><path
           d="m 268.23,108.87 c 0.781,-0.953 1.599,-1.807 2.423,-2.521 l -1.356,2.871 z"
           style="fill:#d8f890;fill-opacity:1;fill-rule:nonzero;stroke:none"
           id="path20503" /><path
           d="m 224.704,81.368 c 3.838,4.802 7.61,10.529 10.9,16.803 L 202.96,87.467 Z"
           style="fill:#d8f890;fill-opacity:1;fill-rule:nonzero;stroke:none"
           id="path20505" /><path
           d="m 210.426,68.218 c 4.27,2.303 9.328,6.957 14.278,13.15 l -21.744,6.099 z"
           style="fill:#c5f5c1;fill-opacity:1;fill-rule:nonzero;stroke:none"
           id="path20507" /><path
           d="m 207.46,276.559 c -6.044,4.658 -11.928,6.301 -17.578,-0.475 -0.618,-0.742 -3.142,0.263 -6.771,2.267 l 2.404,-38.827 29.433,42.832 c -3.557,-1.97 -6.656,-3.948 -7.488,-5.797"
           style="fill:#f55a00;fill-opacity:1;fill-rule:nonzero;stroke:none"
           id="path20509" /><path
           d="m 179.914,186.757 23.046,-99.29 48.542,64.226 c -0.199,0.209 -0.398,0.416 -0.598,0.622 -8.757,9.053 -9.668,15.552 -10.258,22.463 4.963,1.179 11.459,-5.995 20.292,-10.599 l 5.344,7.07 z"
           style="fill:#ffd100;fill-opacity:1;fill-rule:nonzero;stroke:none"
           id="path20511" /><path
           d="m 235.604,98.171 c 7.064,13.475 11.896,29.466 10.354,44.216 1.593,-7.494 11.975,-23.241 16.985,-21.388 0.29,-4.195 2.549,-8.78 5.287,-12.129 l 1.067,0.35 -0.668,13.748 c -0.824,0.446 -1.625,0.851 -2.376,1.207 0.858,8.778 -6.593,18.973 -14.751,27.518 L 202.96,87.467 Z"
           style="fill:#f9ed2d;fill-opacity:1;fill-rule:nonzero;stroke:none"
           id="path20513" /><path
           d="m 260.938,164.179 c 1.833,-0.955 3.766,-1.798 5.806,-2.435 l -0.462,9.505 z"
           style="fill:#f9ed2d;fill-opacity:1;fill-rule:nonzero;stroke:none"
           id="path20515" /><path
           d="m 179.914,186.757 86.368,-15.508 -0.627,3.91 c -25.987,4.79 -22.728,10.984 -24.198,12.088 -5.216,1.82 -8.719,2.359 -10.769,2.793 -0.492,1.194 1.121,3.705 2.285,6.505 7.947,-3.7 19.849,-9.374 31.512,-14.081 l -5.31,33.153 z"
           style="fill:#fd9d00;fill-opacity:1;fill-rule:nonzero;stroke:none"
           id="path20517" /><path
           d="m 259.175,215.617 -73.66,23.907 -5.601,-52.767 z"
           style="fill:#ff9300;fill-opacity:1;fill-rule:nonzero;stroke:none"
           id="path20519" /><path
           d="m 200.783,67.104 c 1.538,-0.422 3.051,-0.596 4.521,-0.494 1.502,0.03 3.235,0.59 5.122,1.608 l -7.466,19.249 z"
           style="fill:#cbf387;fill-opacity:1;fill-rule:nonzero;stroke:none"
           id="path20521" /><path
           d="m 179.914,186.757 -15.092,-23.913 c -5.263,-10.737 -18.551,-28.431 -20.495,-43.615 -5.452,-3.426 -9.996,-7.957 -11.836,-11.957 l 11.58,-3.253 c 2.883,3.296 5.729,7.946 6.703,13.181 6.181,1.241 9.333,13.239 13.284,23.563 -0.7,-15.312 3.702,-31.77 10.396,-45.284 l 28.506,-8.012 z"
           style="fill:#ffce00;fill-opacity:1;fill-rule:nonzero;stroke:none"
           id="path20523" /><path
           d="m 132.225,101.4 c -1.706,-2.114 -3.482,-4.022 -5.238,-5.742 l -2.963,-11.449 c 5.951,4.528 8.387,8.716 12.762,14.94 0.111,-0.147 0.296,-0.214 0.541,-0.208 l -5.415,6.791 c -0.465,-1.617 -0.406,-3.102 0.313,-4.332"
           style="fill:#f0d03c;fill-opacity:1;fill-rule:nonzero;stroke:none"
           id="path20525" /><path
           d="m 131.912,105.732 5.415,-6.791 c 1.232,0.032 4.004,1.943 6.744,5.078 l -11.58,3.253 c -0.241,-0.523 -0.434,-1.038 -0.579,-1.54"
           style="fill:#f6e63a;fill-opacity:1;fill-rule:nonzero;stroke:none"
           id="path20527" /><path
           d="m 174.454,95.479 c 7.27,-14.676 17.243,-25.879 26.329,-28.375 l 2.177,20.363 z"
           style="fill:#f6e63a;fill-opacity:1;fill-rule:nonzero;stroke:none"
           id="path20529" /><path
           d="m 123.002,231.941 c -0.753,0.212 -1.525,0.428 -2.319,0.648 l -0.86,-1.033 z"
           style="fill:#fb6800;fill-opacity:1;fill-rule:nonzero;stroke:none"
           id="path20531" /><path
           d="m 183.111,278.351 c -4.261,2.353 -10.05,6.087 -16.077,9.99 l -3.421,-4.115 c 9.702,-5.778 18.613,-11.021 19.21,-11.619 -5.012,-0.204 -7.36,-3.013 -8.603,-6.742 -8.996,2.184 -10.694,-13.383 -4.157,-16.926 1.212,-4.23 1.995,-8.492 2.228,-11.018 l 13.224,1.603 z"
           style="fill:#fb6800;fill-opacity:1;fill-rule:nonzero;stroke:none"
           id="path20533" /><path
           d="m 158.448,239.973 c -2.953,5.169 -13.329,11.56 -19.565,14.506 l -6.872,-8.264 c 4.871,-4.918 11.015,-8.075 17.126,-11.104 l 20.987,2.546 c -3.165,2.259 -10.155,5.599 -11.676,2.316"
           style="fill:#fb6800;fill-opacity:1;fill-rule:nonzero;stroke:none"
           id="path20535" /><path
           d="m 165.137,183 c -1.911,-1.532 -3.072,-3.419 -2.832,-5.511 -19.172,-4.578 -33.368,-11.234 -30.565,-17.247 -6.573,-6.572 -13.427,-12.763 -10.182,-21.545 -0.715,-1.073 -4.209,-3.694 -8.729,-6.541 l 4.235,-5.921 c 3.331,2.577 6.009,5.346 7.002,7.887 13.583,9.973 7.47,11.814 10.478,20.513 7.246,0.135 25.288,12.727 31.137,17.413 2.172,-1.316 1.384,-4.629 -0.859,-9.204 l 15.092,23.913 z"
           style="fill:#feb200;fill-opacity:1;fill-rule:nonzero;stroke:none"
           id="path20537" /><path
           d="m 123.919,170.13 c 0.817,0.612 3.529,2.179 7.321,4.254 l -22.419,-5.699 c 6.785,-0.856 12.419,-0.527 15.098,1.445"
           style="fill:#feb200;fill-opacity:1;fill-rule:nonzero;stroke:none"
           id="path20539" /><path
           d="m 138.233,300.285 c 0.603,-1.211 13.578,-9.031 25.38,-16.059 l 3.421,4.115 c -16.068,10.408 -33.819,22.028 -28.801,11.944"
           style="fill:#f35c00;fill-opacity:1;fill-rule:nonzero;stroke:none"
           id="path20541" /><path
           d="m 134.179,256.085 c -2.547,14.725 -11.105,21.961 -20.207,27.024 l 0.861,-7.591 c 1.481,-0.986 2.82,-2.06 3.921,-3.271 3.855,-4.24 11.862,-17.792 10.455,-22.803 0.873,-1.159 1.812,-2.229 2.802,-3.229 l 6.872,8.264 c -2.403,1.136 -4.191,1.76 -4.704,1.606"
           style="fill:#f35c00;fill-opacity:1;fill-rule:nonzero;stroke:none"
           id="path20543" /><path
           d="m 120.683,232.589 c -0.332,0.092 -0.669,0.184 -1.008,0.278 l 0.148,-1.311 z"
           style="fill:#f35c00;fill-opacity:1;fill-rule:nonzero;stroke:none"
           id="path20545" /><path
           d="m 185.515,239.524 -13.224,-1.603 c 0.194,-2.112 0.006,-3.012 -0.639,-1.665 -0.146,0.306 -0.71,0.817 -1.528,1.401 l -20.987,-2.546 c 2.297,-1.137 4.588,-2.257 6.804,-3.445 0.761,-2.593 0.076,-3.551 10.478,-7.489 -1.463,-2.925 -27.987,3.045 -30.252,3.8 -2.639,0.879 -7.241,2.294 -13.165,3.964 l -3.179,-0.385 50.537,-37.677 c 2.642,1.102 4.636,1.807 5.651,1.928 0.52,-0.973 1.657,-4.792 1.281,-7.095 l 2.622,-1.955 z"
           style="fill:#ff8500;fill-opacity:1;fill-rule:nonzero;stroke:none"
           id="path20547" /><path
           d="m 177.292,188.712 c -0.162,-0.991 -0.603,-1.702 -1.496,-1.782 -3.867,-0.347 -7.995,-1.794 -10.659,-3.93 l 14.777,3.757 z"
           style="fill:#fe9400;fill-opacity:1;fill-rule:nonzero;stroke:none"
           id="path20549" /><path
           d="m 93.658,172.019 c 5.208,-1.58 10.462,-2.742 15.163,-3.334 l 22.419,5.699 c 10.5,5.744 29.288,15.388 39.12,19.495 l -50.537,37.677 z"
           style="fill:#fe9400;fill-opacity:1;fill-rule:nonzero;stroke:none"
           id="path20551" /><path
           d="m 119.675,232.867 c -0.824,0.227 -1.666,0.456 -2.529,0.689 l 2.677,-2 z"
           style="fill:#f04f00;fill-opacity:1;fill-rule:nonzero;stroke:none"
           id="path20553" /><path
           d="m 100.274,289.902 c 1.13,-3.985 -4.611,-3.853 -3.62,-4.641 4.832,-3.57 12.55,-6 18.179,-9.743 l -0.861,7.591 c -4.668,2.597 -9.48,4.622 -13.698,6.793"
           style="fill:#f04f00;fill-opacity:1;fill-rule:nonzero;stroke:none"
           id="path20555" /><path
           d="m 119.823,231.556 -2.677,2 c -24.58,6.631 -64.403,15.571 -87.754,13.009 l 0.187,-14.794 z"
           style="fill:#f64e00;fill-opacity:1;fill-rule:nonzero;stroke:none"
           id="path20557" /><path
           d="m 112.902,82.271 c 0.386,-0.194 2.259,-0.516 2.793,-1.348 0.774,-1.206 -0.06,-2.036 0.415,-1.773 3.245,1.8 5.801,3.452 7.914,5.059 l 2.963,11.449 C 118.514,87.361 110.49,83.477 112.902,82.271"
           style="fill:#fb9b00;fill-opacity:1;fill-rule:nonzero;stroke:none"
           id="path20559" /><path
           d="m 92.241,122.424 c -3.054,-0.615 4.568,-0.459 3.787,-4.977 -0.559,-3.244 12.42,2.123 21.036,8.788 l -4.235,5.921 c -6.474,-4.077 -15.052,-8.616 -20.588,-9.732"
           style="fill:#ffa300;fill-opacity:1;fill-rule:nonzero;stroke:none"
           id="path20561" /><path
           d="m 29.579,231.771 32.792,-36.759 c 1.134,0.45 2.223,1.008 3.259,1.679 -0.906,-1.193 -1.395,-2.407 -1.523,-3.627 L 76.72,178.927 c 4.972,-2.704 10.925,-5.084 16.938,-6.908 l 26.165,59.537 z"
           style="fill:#fd7700;fill-opacity:1;fill-rule:nonzero;stroke:none"
           id="path20563" /><path
           d="m 28.902,202.576 c 10.676,-7.39 23.729,-11.433 33.469,-7.564 l -32.792,36.759 z"
           style="fill:#fd7400;fill-opacity:1;fill-rule:nonzero;stroke:none"
           id="path20565" /><path
           d="m 76.72,178.927 -12.613,14.137 c -0.513,-4.912 4.856,-9.918 12.613,-14.137"
           style="fill:#fd7400;fill-opacity:1;fill-rule:nonzero;stroke:none"
           id="path20567" /><path
           d="m 17.213,213.222 c 3.211,-3.909 7.244,-7.568 11.689,-10.646 l 0.677,29.195 z"
           style="fill:#fa6200;fill-opacity:1;fill-rule:nonzero;stroke:none"
           id="path20569" /><path
           d="m 29.392,246.565 c -7.059,-0.774 -12.612,-2.6 -15.785,-5.857 l 15.972,-8.937 z"
           style="fill:#f03600;fill-opacity:1;fill-rule:nonzero;stroke:none"
           id="path20571" /><path
           d="m 13.607,240.708 c -0.289,-0.297 -0.559,-0.605 -0.807,-0.926 -5.897,-7.602 -2.843,-17.723 4.413,-26.56 l 12.366,18.549 z"
           style="fill:#f64d00;fill-opacity:1;fill-rule:nonzero;stroke:none"
           id="path20573" /></g></g></g></svg>
