<?xml version="1.0" encoding="UTF-8" standalone="no"?>
<!-- Created with Inkscape (http://www.inkscape.org/) -->

<svg
   version="1.1"
   id="svg24307"
   xml:space="preserve"
   width="530.66669"
   height="530.66669"
   viewBox="0 0 530.66669 530.66669"
   sodipodi:docname="lion-cab-publicdomainvectors.org.svg"
   inkscape:version="1.1.2 (b8e25be833, 2022-02-05)"
   xmlns:inkscape="http://www.inkscape.org/namespaces/inkscape"
   xmlns:sodipodi="http://sodipodi.sourceforge.net/DTD/sodipodi-0.dtd"
   xmlns="http://www.w3.org/2000/svg"
   xmlns:svg="http://www.w3.org/2000/svg"><defs
     id="defs24311"><clipPath
       clipPathUnits="userSpaceOnUse"
       id="clipPath24321"><path
         d="M 0,398 H 398 V 0 H 0 Z"
         id="path24319" /></clipPath></defs><sodipodi:namedview
     id="namedview24309"
     pagecolor="#ffffff"
     bordercolor="#666666"
     borderopacity="1.0"
     inkscape:pageshadow="2"
     inkscape:pageopacity="0.0"
     inkscape:pagecheckerboard="0"
     showgrid="false"
     inkscape:zoom="1.5659547"
     inkscape:cx="265.33334"
     inkscape:cy="265.33334"
     inkscape:window-width="1920"
     inkscape:window-height="1018"
     inkscape:window-x="-8"
     inkscape:window-y="-8"
     inkscape:window-maximized="1"
     inkscape:current-layer="g24313" /><g
     id="g24313"
     inkscape:groupmode="layer"
     inkscape:label="lion-cab-publicdomainvectors.org"
     transform="matrix(1.3333333,0,0,-1.3333333,0,530.66667)"><g
       id="g24315"><g
         id="g24317"
         clip-path="url(#clipPath24321)"><path
           d="m 183.704,69.997 c 81.707,0 148.348,16.844 148.348,37.495 0,20.653 -66.641,37.496 -148.348,37.496 -81.71,0 -148.352,-16.843 -148.352,-37.496 0,-20.651 66.642,-37.495 148.352,-37.495"
           style="fill:#bacf90;fill-opacity:1;fill-rule:evenodd;stroke:none"
           id="path24323" /><path
           d="m 338.617,176.372 c 7.34,10.169 16.361,5.119 24.54,7.679 -1.048,-1.605 -2.293,-2.88 -3.873,-3.598 5.976,-2.755 9.042,-7.002 17.927,-8.26 -3.424,-5.327 -8.871,-7.975 -17.16,-8.937 1.485,-0.674 2.973,-1.349 4.461,-2.022 -17.924,-5.58 -24.722,1.564 -25.895,15.138"
           style="fill:#735525;fill-opacity:1;fill-rule:evenodd;stroke:none"
           id="path24325" /><path
           d="m 119.76,133.139 c 2.9,9.564 5.165,20.775 6.249,35.049 2.397,-12.185 5.228,-27.398 -6.249,-35.049 m 22.067,148.251 c 0.022,11.604 -12.786,40.189 -21.46,47.444 11.14,5.616 14.696,27.801 4.891,33.148 -10.279,5.606 -24.091,-7.426 -28.8,-20.106 -5.979,1.268 -11.956,2.536 -17.934,3.804 -4.527,6.34 -6.282,21.732 -13.585,19.02 -8.325,-3.092 -9.736,-16.031 -5.434,-26.084 -4.166,-4.166 -4.242,-3.873 -8.218,-8.22 -3.436,-3.755 0.067,-10.165 -3.194,-13.245 -7.245,-3.622 -12.317,-11.864 -19.561,-15.486 -0.401,-3.024 0.302,-9.022 2.441,-11.276 3.074,-21.455 12.788,-34.482 27.899,-25.619 6.889,4.04 10.641,9.453 17.48,11.354 1.255,-36.388 3.883,-50.029 19.02,-83.142 2.661,-23.92 2.97,-46.37 -5.978,-63.035 -3.185,-1.493 -6.37,-2.002 -9.555,-2.607 -4.473,-0.851 -7.748,-4.385 -8.279,-8.85 -0.289,-2.419 0.399,-4.61 2.016,-6.429 1.616,-1.821 3.712,-2.764 6.146,-2.764 2.497,-3.145 7.008,-3.737 14.937,0 4.809,0 8.946,1.715 12.347,5.114 1.013,1.011 2.025,2.026 3.037,3.038 0.201,-0.761 0.401,-1.522 0.601,-2.283 1.265,-4.804 5.464,-8.041 10.433,-8.041 3.266,-2.249 7.421,-1.831 12.045,0 4.218,0 7.845,1.3 11.101,3.981 1.467,1.209 2.935,2.416 4.402,3.625 -0.313,11.964 0.448,16.888 3.068,22.919 2.887,6.648 4.002,12.93 3.58,20.165 -0.466,8.015 4.36,14.976 3.949,23.756 21.508,10.189 39.338,5.851 56.514,4.619 4.43,-7.381 11.07,-13.81 16.136,-17.845 6.19,-4.927 8.409,-12.927 5.648,-20.34 -3.19,-8.554 -8.204,-16.499 -14.448,-24.034 -3.77,-1.029 -7.538,-2.058 -11.306,-3.085 -4.076,-1.112 -6.869,-4.515 -7.17,-8.728 -0.025,-0.363 -0.05,-0.728 -0.076,-1.088 -0.111,-1.59 0.37,-3 1.436,-4.183 1.066,-1.184 2.414,-1.814 4.006,-1.868 3.65,-4.038 9.802,-3.066 16.713,-0.578 5.42,-0.185 10.157,2.684 12.503,7.574 5.86,12.221 12.855,24.06 20.634,32.685 4.75,5.268 6.947,13.138 4.627,19.753 6.703,-0.182 17.412,-4.574 21.398,-9.237 0.543,-8.333 1.086,-16.665 1.628,-24.998 -3.096,-2.229 -9.618,-5.601 -14.883,-8.551 -3.83,-2.147 -6.037,-5.915 -6.037,-10.306 v -1.589 c 0,-3.597 2.854,-6.55 6.45,-6.675 4.412,-4.176 10.465,-4.045 17.778,-0.613 4.679,-0.161 8.777,1.898 11.442,5.746 0.351,0.508 0.704,1.018 1.056,1.528 3.115,4.499 4.626,9.166 4.742,14.637 0.182,8.63 0.364,17.264 0.546,25.895 0.216,10.357 -4.413,19.358 -12.962,25.208 -23.747,16.247 -5.266,27.267 -15.546,51.154 22.546,-21.404 38.467,-50.961 69.303,-56.315 4.426,-0.77 5.271,3.67 0.75,4.509 -35.082,6.512 -51.101,54.54 -87.485,73.86 -32.548,24.726 -91.479,19.359 -120.792,32.684"
           style="fill:#c49a56;fill-opacity:1;fill-rule:evenodd;stroke:none"
           id="path24327" /><path
           d="m 28.924,295.115 c 0.41,-1.927 1.084,-3.708 2.049,-4.726 3.074,-21.455 12.788,-34.482 27.899,-25.619 6.889,4.04 10.641,9.453 17.48,11.354 4.604,4.182 0.337,8.072 -0.146,11.288 -2.088,13.9 -12.182,17.732 -28.725,13.446 -3.707,-0.08 -7.413,-0.158 -11.119,-0.237 z"
           style="fill:#e8c997;fill-opacity:1;fill-rule:evenodd;stroke:none"
           id="path24329" /><path
           d="m 95.372,192.982 c 2.661,-23.92 2.97,-46.37 -5.978,-63.035 -3.185,-1.493 -6.37,-2.002 -9.555,-2.607 -4.473,-0.851 -7.748,-4.385 -8.279,-8.85 -0.289,-2.419 0.399,-4.61 2.016,-6.429 1.616,-1.821 3.712,-2.764 6.146,-2.764 2.497,-3.145 7.008,-3.737 14.937,0 4.809,0 8.946,1.715 12.347,5.114 1.013,1.011 2.025,2.026 3.037,3.038 -2.428,5.796 1.277,10.98 9.717,15.69 2.9,9.564 5.165,20.775 6.249,35.049 -0.395,1.814 -0.789,3.629 -1.184,5.444 -9.818,6.449 -19.636,12.9 -29.453,19.35"
           style="fill:#b38a48;fill-opacity:1;fill-rule:evenodd;stroke:none"
           id="path24331" /><path
           d="m 211.211,186.15 c 1.511,0.122 3.019,0.148 4.525,0.04 4.43,-7.381 11.07,-13.81 16.136,-17.845 6.19,-4.927 8.409,-12.927 5.648,-20.34 -3.19,-8.554 -8.204,-16.499 -14.448,-24.034 -3.77,-1.029 -7.538,-2.058 -11.306,-3.085 -4.076,-1.112 -6.869,-4.515 -7.17,-8.728 -0.025,-0.363 -0.05,-0.728 -0.076,-1.088 -0.111,-1.59 0.37,-3 1.436,-4.183 1.066,-1.184 2.414,-1.814 4.006,-1.868 3.65,-4.038 9.802,-3.066 16.713,-0.578 5.42,-0.185 10.157,2.684 12.503,7.574 5.86,12.221 12.855,24.06 20.634,32.685 4.75,5.268 6.947,13.138 4.627,19.753 -9.93,5.861 -15.157,7.756 -17.584,20.507 -3.14,8.52 -8.003,14.394 -13.858,18.747 4.842,-5.417 9.255,-11.238 11.009,-19.563 -10.01,2.446 -20.02,4.89 -30.027,7.336 z"
           style="fill:#b38a48;fill-opacity:1;fill-rule:evenodd;stroke:none"
           id="path24333" /><path
           d="m 159.222,181.571 c -0.218,-1.597 -0.555,-5.288 -0.741,-7.399 21.429,0.529 40.947,13.187 57.255,12.018 8.971,0.495 18.213,-0.368 28.27,-2.046 -31.344,14.753 -60.086,17.26 -84.27,15.841 1.743,-6.562 1.005,-12.575 -0.514,-18.414"
           style="fill:#e8c997;fill-opacity:1;fill-rule:evenodd;stroke:none"
           id="path24335" /><path
           d="m 28.532,301.665 c -0.401,-3.024 0.302,-9.022 2.441,-11.276 5.523,-0.947 8.564,-0.039 9.556,7.345 -0.024,1.415 2.05,1.263 2.504,0.027 0.39,-1.064 0.821,-2.661 2.455,-2.404 1.435,0.269 2.637,1.006 2.737,3.123 0.084,1.781 -1.115,3.329 -2.859,3.694 -7.308,1.528 -12.49,0.927 -16.834,-0.509"
           style="fill:#36210c;fill-opacity:1;fill-rule:evenodd;stroke:none"
           id="path24337" /><path
           d="m 76.893,263.74 c 1.543,-27.623 5.19,-41.688 18.479,-70.758 6.734,-9.918 13.956,-19.29 29.453,-19.35 -0.447,12.891 0.176,29.676 -4.891,37.494 -24.071,11.355 -32.763,74.743 -43.041,52.614"
           style="fill:#e8c997;fill-opacity:1;fill-rule:evenodd;stroke:none"
           id="path24339" /><path
           d="m 61.956,289.809 c -2.415,-7.593 -12.897,-23.672 -24.585,-7.806 0.875,-9.908 -4.442,-6.616 -4.213,1.226 2.009,-10.241 3.391,-3.483 2.668,3.638 8.976,-14.549 20.874,-6.474 26.13,2.942"
           style="fill:#36210c;fill-opacity:1;fill-rule:evenodd;stroke:none"
           id="path24341" /><path
           d="m 71.85,310.158 c 5.753,14.9 11.756,14.956 17.932,4.647 -2.698,-1.799 -5.094,-4.618 -8.094,-5.395 -3.169,-0.822 -6.56,0.498 -9.838,0.748"
           style="fill:#ffffff;fill-opacity:1;fill-rule:evenodd;stroke:none"
           id="path24343" /><path
           d="m 80.615,310.179 c 2.431,0 4.415,2.472 4.415,5.503 0,3.03 -1.984,5.502 -4.415,5.502 -2.432,0 -4.416,-2.472 -4.416,-5.502 0,-3.031 1.984,-5.503 4.416,-5.503"
           style="fill:#ffcc00;fill-opacity:1;fill-rule:evenodd;stroke:none"
           id="path24345" /><path
           d="m 71.85,310.158 c 2.356,14.289 14.066,16.248 17.932,4.647 -6.745,6.476 -12.67,4.378 -17.932,-4.647"
           style="fill:#1a1a1a;fill-opacity:1;fill-rule:evenodd;stroke:none"
           id="path24347" /><path
           d="m 80.815,319.494 c 1.447,-0.141 2.619,-2.033 2.619,-4.222 0,-2.19 -1.172,-3.853 -2.619,-3.711 -1.445,0.141 -2.618,2.031 -2.618,4.222 0,2.19 1.173,3.852 2.618,3.711"
           style="fill:#1a1a1a;fill-opacity:1;fill-rule:evenodd;stroke:none"
           id="path24349" /><path
           d="m 82.206,317.037 c -0.746,0.073 -1.35,-0.822 -1.35,-2 0,-1.178 0.604,-2.191 1.35,-2.265 0.744,-0.072 1.348,0.823 1.348,2.001 0,1.178 -0.604,2.192 -1.348,2.264"
           style="fill:#ffffff;fill-opacity:1;fill-rule:evenodd;stroke:none"
           id="path24351" /><path
           d="m 100.969,340.477 c 19.676,37.715 33.448,-1.756 15.352,-8.422 -2.868,3.932 -8.139,6.663 -15.352,8.422"
           style="fill:#b38a48;fill-opacity:1;fill-rule:evenodd;stroke:none"
           id="path24353" /></g></g></g></svg>
