<?xml version="1.0" encoding="utf-8"?>
<!-- Svg Vector Icons : http://www.onlinewebfonts.com/icon -->
<!DOCTYPE svg PUBLIC "-//W3C//DTD SVG 1.1//EN" "http://www.w3.org/Graphics/SVG/1.1/DTD/svg11.dtd">
<svg version="1.1" xmlns="http://www.w3.org/2000/svg" xmlns:xlink="http://www.w3.org/1999/xlink" x="0px" y="0px" viewBox="0 0 1000 1000" enable-background="new 0 0 1000 1000" xml:space="preserve">
<metadata> Svg Vector Icons : http://www.onlinewebfonts.com/icon </metadata>
<g><path d="M791.8,489.3c4.1,8.4,3.1,18.7-3,26.2c-0.5,0.6-1.1,1.3-1.7,1.9l-73.9,73.9c0,0,0,0,0,0L339.4,965.1l0,0l-17.7,17.7c-9.6,9.6-25.2,9.6-34.8,0l-17.7-17.7l-38.6-38.6l-17.7-17.7c-9.6-9.6-9.6-25.2,0-34.8l17.7-17.7l338.7-338.7c9.8-9.8,9.8-25.6,0-35.4L400,313L230.6,143.6l0,0l-17.7-17.7c-9.6-9.6-9.6-25.2,0-34.8l73.9-73.9c9.6-9.6,25.2-9.6,34.8,0l465.4,465.4C789.1,484.6,790.6,486.9,791.8,489.3L791.8,489.3z"/></g>
</svg>